<svg xmlns="http://www.w3.org/2000/svg" data-name="Layer 1" width="673.46032" height="516.71796" viewBox="0 0 673.46032 516.71796" xmlns:xlink="http://www.w3.org/1999/xlink"><path d="M409.21112,687.2635a2.60562,2.60562,0,0,1-1.8884-4.51618l.17854-.70981q-.03526-.08524-.07094-.17038c-2.39883-5.72-17.7059,10.22534-18.36768,15.60118a20.70032,20.70032,0,0,0,.36339,7.11926,82.99211,82.99211,0,0,1-7.54948-34.46931,80.10272,80.10272,0,0,1,.49687-8.93623q.41161-3.64869,1.14211-7.24543a83.95354,83.95354,0,0,1,16.64878-35.58171c4.73843.26446,8.89118-.45737,9.29219-9.64075.07132-1.63357,1.283-3.048,1.54994-4.65722-.45236.05933-.91215.09641-1.36451.126-.14092.00737-.28923.01481-.43016.02225l-.05314.00238a2.58157,2.58157,0,0,1-2.1202-4.20581q.293-.36057.58632-.72076c.29667-.37082.60072-.73421.89733-1.105a1.28368,1.28368,0,0,0,.09641-.11129c.34119-.42272.68226-.838,1.02344-1.26072a7.465,7.465,0,0,0-2.44728-2.36562c-3.41876-2.00231-8.13531-.61554-10.60485,2.47691-2.47692,3.0924-2.94409,7.43081-2.0839,11.29449a29.91607,29.91607,0,0,0,4.13816,9.22541c-.18545.23734-.37827.46723-.56365.70457a84.49541,84.49541,0,0,0-8.81923,13.97178c.70058-5.47248-7.86656-25.23562-11.17969-29.42174-3.97961-5.02816-12.14016-2.83375-12.84128,3.54023q-.01018.09258-.01988.18509.73817.41643,1.44515.884a3.53433,3.53433,0,0,1-1.425,6.43182l-.072.01113c-6.58723,9.40523,14.5297,33.88469,19.81543,28.38831a86.24524,86.24524,0,0,0-4.64241,21.84738,81.80074,81.80074,0,0,0,.05933,13.20782l-.02227-.15575c-1.17442-9.56975-21.32245-23.79807-27.206-22.6129-3.38935.68274-6.72771.52753-6.21305,3.94641q.01233.08186.02506.16372a23.74391,23.74391,0,0,1,2.6623,1.28291q.73816.41653,1.44514.884a3.53438,3.53438,0,0,1-1.425,6.43189l-.07213.01107c-.05189.00744-.09642.01487-.14825.02232-2.99844,10.317,19.23787,26.96731,32.75623,21.66938h.00745a86.21979,86.21979,0,0,0,5.79189,16.90837h20.69046c.07421-.22989.14092-.46723.20769-.69713a23.50769,23.50769,0,0,1-5.72517-.34107c1.53513-1.88369,3.0702-3.7822,4.60533-5.66584a1.28514,1.28514,0,0,0,.09641-.11123c.77866-.964,1.56476-1.92071,2.34343-2.88475l.00041-.00119a34.43413,34.43413,0,0,0-1.009-8.77193Zm-23.69335-46.60887.01089-.0147-.01089.02952Zm-4.583,41.31427-.178-.4004c.00744-.28924.00744-.57847,0-.87508,0-.08165-.01482-.16318-.01482-.24477.06672.51169.12605,1.02343.2002,1.53512Z" transform="translate(-263.26984 -191.64102)" fill="#ffffff"/><path d="M805.781,705.63107l-.10595-.72461a89.3817,89.3817,0,0,1,21.17822-71.88574,86.52772,86.52772,0,0,1,16.35937-14.2539l.54248-.36426.31787.93262a4.74223,4.74223,0,0,0,9.20362-1.209l.41943-5.47461.64746-.31933a16.855,16.855,0,0,1,18.74561,2.50781,17.14476,17.14476,0,0,1,5.08935,18.55176c-.98681,2.99218-1.92627,6.09765-2.83545,9.10156-3.10742,10.27148-6.3208,20.8916-12.17089,29.73242a53.35022,53.35022,0,0,1-39.981,23.49707Z" transform="translate(-263.26984 -191.64102)" fill="#f2f2f2"/><path d="M608.84614,495.20316A7.29652,7.29652,0,0,0,618.488,500.879l16.55233,19.42547,4.13853-12.823L622.809,491.04126a7.33611,7.33611,0,0,0-13.96287,4.1619Z" transform="translate(-263.26984 -191.64102)" fill="#9e616a"/><path d="M675.58762,490.35911s8.37875-13.91631,16.24651-9.94886,1.813,17.73142,1.813,17.73142l-36.82221,42.7324s-41.028-34.25785-35.57473-33.77618,8.32076-9.18567,8.32076-9.18567l22.10553,14.76017,1.327-4.09563,1.11815,1.44056,3.62881-2.18246Z" transform="translate(-263.26984 -191.64102)" fill="#ffffff"/><path d="M731.35661,230.365a38.5527,38.5527,0,0,1-10.30836,26.30155c-.50372.5487-1.03445,1.0794-1.57413,1.59213a585.04325,585.04325,0,0,0-62.82144-42.17782c.26984-.68362.55769-1.35825.8725-2.02388a38.71737,38.71737,0,0,1,73.83143,16.308Z" transform="translate(-263.26984 -191.64102)" fill="#ff6584"/><path d="M762.75832,309.16168l-.036.40479q-38.1975-2.63108-76.386-5.27109c-18.3949-1.26831-37.42842-2.70752-53.68249-11.41473-6.17065-3.30119-12.17928-7.70877-19.17746-8.0146-8.68025-.38678-16.25407,5.68489-22.2088,12.01739-35.19765,37.49138-45.38907,94.81688-84.87733,127.74779A1254.03174,1254.03174,0,0,1,595.3154,247.14979c6.3325-10.47923,13.8434-21.66908,25.6-25.0872,11.2168-3.26521,22.6945,1.50217,33.02086,7.61881,2.21281,1.31328,4.37159,2.68952,6.45845,4.05676q23.8683,15.62438,46.9542,32.44512Q735.6967,286.81349,762.75832,309.16168Z" transform="translate(-263.26984 -191.64102)" fill="#f2f2f2"/><path d="M845.11705,388.678a603.2539,603.2539,0,0,0-94.22321-104.5855q-15.26019-13.41162-31.41972-25.8338a585.04317,585.04317,0,0,0-62.82144-42.17781q-10.74012-6.23356-21.732-11.97242c-5.69388-2.95936-11.75654-5.66689-18.32292-5.24412a24.37855,24.37855,0,0,0-12.656,4.86633c-8.06854,5.89177-13.4116,15.0937-17.8102,23.86388-3.84991,7.69078-7.43893,15.53447-11.09992,23.33318-1.55613,3.31918-3.11231,6.62935-4.7224,9.92154q-8.41944,17.29751-17.23451,34.40609-11.36073,22.04692-23.37814,43.76094-25.24464,45.64539-53.27772,89.64472-41.20639,64.66995-88.16952,125.418c-3.84088,4.95628-5.424,6.10762-9.31887,11.02795-.8995,1.15139-2.50062-.46777-1.61012-1.6101,32.48119-41.05345,60.76164-79.84012,89.27593-123.754q32.2473-49.66623,60.95047-101.53619,9.21539-16.63629,18.04408-33.47959,14.28868-27.26855,27.58782-55.04974,3.508-7.313,6.94416-14.67992c7.277-15.58844,17.87317-38.7687,38.33692-38.45387,6.01769.09,11.60364,2.52761,16.87473,5.22613,5.37,2.76149,10.64117,5.69387,15.90325,8.67123q3.1573,1.781,6.28754,3.616,12.39969,7.205,24.43054,15.01275,20.077,13.02032,39.09253,27.59682,9.02655,6.92172,17.78325,14.15821a605.85779,605.85779,0,0,1,98.127,102.82248q5.16759,6.86772,10.11943,13.88836C847.92356,388.732,845.95364,389.86529,845.11705,388.678Z" transform="translate(-263.26984 -191.64102)" fill="#e4e4e4"/><path d="M752.91971,272.64381c1.189-1.32549,2.37064-2.651,3.56744-3.97646,9.43739-10.43732,19.5638-20.75335,32.52351-26.737a47.18536,47.18536,0,0,1,19.76876-4.58239,56.41679,56.41679,0,0,1,20.52584,4.47637c3.09035,1.2346,6.11262,2.63581,9.08905,4.12791,3.401,1.71176,6.74135,3.53719,10.06613,5.3777q9.362,5.18076,18.481,10.816,18.14426,11.21361,35.152,24.139,8.81672,6.70323,17.26942,13.84566,7.862,6.635,15.40584,13.626c1.07547.99221,2.68128-.6135,1.60582-1.60573-1.32549-1.2346-2.66613-2.46162-4.00677-3.67349q-5.68065-5.13531-11.54325-10.07373-10.69054-9.02085-21.93489-17.34491-17.48526-12.9519-36.17424-24.14656-9.33915-5.58976-18.93552-10.70993c-1.93165-1.03008-3.88587-2.03747-5.86259-2.99182a93.45656,93.45656,0,0,0-13.93647-5.67308,49.57831,49.57831,0,0,0-21.04872-2.06774,54.801,54.801,0,0,0-19.42035,6.71831c-12.72451,7.11219-22.59354,18.1099-32.19779,28.84258C750.34417,272.12117,751.94257,273.73448,752.91971,272.64381Z" transform="translate(-263.26984 -191.64102)" fill="#e4e4e4"/><path d="M492.19785,380.80153,461.70657,369.6492l-15.139-5.53717a154.81578,154.81578,0,0,0-14.94618-5.14764,23.57946,23.57946,0,0,0-13.52813.17236,31.17894,31.17894,0,0,0-10.55163,6.54091,85.63126,85.63126,0,0,0-8.65453,9.24241c-3.296,3.96111-6.5434,7.96373-9.80531,11.95295q-20.19391,24.69644-40.12372,49.60726-19.92936,24.91042-39.59222,50.03247-19.71092,25.18347-39.15074,50.57759-2.38142,3.11085-4.75875,6.22484c-.87563,1.14689-2.85.01619-1.962-1.14689q19.58323-25.64941,39.43947-51.08892,19.90506-25.50027,40.0852-50.7842,20.17976-25.2834,40.63222-50.34764,5.09534-6.24426,10.20747-12.47471c2.87483-3.50375,5.71725-7.04531,8.87051-10.30646,5.788-5.98607,13.01931-11.27621,21.67532-11.41969,5.08928-.08438,10.0146,1.53054,14.74307,3.24116,5.09749,1.84409,10.18277,3.7227,15.27375,5.58474l30.7045,11.23032,7.67613,2.80757c1.36221.49826.77375,2.695-.60406,2.19109Z" transform="translate(-263.26984 -191.64102)" fill="#e4e4e4"/><path d="M793.02325,255.06363c15.495-7.96363,35.33848-6.40389,49.57728,3.54547a707.12184,707.12184,0,0,0-80.44931,18.77649C773.12553,270.95435,781.71009,260.87808,793.02325,255.06363Z" transform="translate(-263.26984 -191.64102)" fill="#f2f2f2"/><path d="M842.7531,258.58168l2.983,2.42464c-1.009-.84863-2.05792-1.6443-3.13548-2.39718C842.65148,258.60032,842.70215,258.59046,842.7531,258.58168Z" transform="translate(-263.26984 -191.64102)" fill="#f2f2f2"/><path d="M408.68971,380.913c3.00149-3.65358,6.24661-7.47912,10.73607-8.9631l4.19148.16531A475.43628,475.43628,0,0,1,296.985,516.88556Q352.83738,448.89929,408.68971,380.913Z" transform="translate(-263.26984 -191.64102)" fill="#f2f2f2"/><path d="M839.20077,589.59438,810.9836,577.14565V566.44332l10.05609-.05652a7.46912,7.46912,0,0,0,7.044-5.10712l7.06439-13.193a7.46923,7.46923,0,0,0-7.08593-9.83124l-17.0785,6v-9.959h21.44025a7.46924,7.46924,0,0,0,7.27936-5.79584l4.865-21.16284a7.46928,7.46928,0,0,0-7.27936-9.14264H810.9836V495.7054a4.97949,4.97949,0,0,0-9.959,0v2.48975H624.66744V495.7054a4.9795,4.9795,0,0,0-9.959,0v2.48975h-20.9108a7.46919,7.46919,0,0,0-7.27936,9.14264l4.865,21.16284a7.46924,7.46924,0,0,0,7.27936,5.79584h16.04581v9.959l-11.68427-6a7.46923,7.46923,0,0,0-7.10928,9.76l7.21039,14.377a7.46926,7.46926,0,0,0,7.15121,5.17834l4.432-.0249v9.59967l-22.8227,12.44873a7.46922,7.46922,0,0,0-7.46923,7.46918v.00006h0a7.46925,7.46925,0,0,0,7.46923,7.46924h22.8227v96.77447a4.9795,4.9795,0,0,0,9.959,0V604.53286H801.02462v97.77447a4.9795,4.9795,0,0,0,9.959,0V604.53286h28.21717a7.46927,7.46927,0,0,0,7.46923-7.46924h0a7.46922,7.46922,0,0,0-7.46917-7.46924Zm-214.53333-55.298H801.02462v9.959H624.66744Zm0,42.84924V567.49l176.35718-.99078v10.64636Z" transform="translate(-263.26984 -191.64102)" fill="#ccc"/><path d="M690.94092,445.01176a20.87107,20.87107,0,0,1,14.05292-11.948c6.88556-1.791,16.96774.93727,22.14412,4.85454,9.46862,7.16548,11.77933,31.7815,5.274,39.56044-1.29393-.052-5.7588-.09048-7.06841-.12772l-1.8526-4.68857v4.64235c-10.22188-.23987-20.86379-.08968-31.51148.06564C691.02511,471.86285,688.75164,450.3097,690.94092,445.01176Z" transform="translate(-263.26984 -191.64102)" fill="#2f2e41"/><circle cx="441.90638" cy="265.13398" r="14.76672" fill="#9e616a"/><path d="M695.02971,437.54613a18.54745,18.54745,0,0,1,28.19868,16.187c-8.04935,2.05732-16.62723,2.91784-25.71725.49549l-2.0779-5.08546-1.225,5.08922q-4.17146,2.93433-8.05239-.01057A18.938,18.938,0,0,1,695.02971,437.54613Z" transform="translate(-263.26984 -191.64102)" fill="#2f2e41"/><path d="M735.34248,439.01185c-1.45914-2.2377-3.06823-4.60242-5.54548-5.60226s-5.99032.19572-6.32708,2.84581c-.25175,1.981,1.25985,3.6825,2.39776,5.32347s1.87765,4.11777.39135,5.45136l-.83611.4312a8.35338,8.35338,0,0,0,6.78593,3.23811,6.01641,6.01641,0,0,0,5.54129-4.65966C738.1774,443.53737,736.72915,441.13842,735.34248,439.01185Z" transform="translate(-263.26984 -191.64102)" fill="#2f2e41"/><polygon points="382.42 496.203 374.125 493.789 379.487 460.647 391.729 464.209 382.42 496.203" fill="#9e616a"/><path d="M644.81839,704.67315l-5.88587-1.71231.566-5.8626-4.30738,4.77416-15.61072-4.54146a3.65463,3.65463,0,0,1-.13305-6.977l14.971-4.983,1.63436-5.6179,12.88465,4.59727Z" transform="translate(-263.26984 -191.64102)" fill="#2f2e41"/><polygon points="484.462 493.199 476.243 495.858 462.076 465.42 474.207 461.496 484.462 493.199" fill="#9e616a"/><path d="M756.4575,699.25716l-5.83225,1.88688-2.82247-5.16954-.8848,6.36893-15.46852,5.00444a3.65464,3.65464,0,0,1-4.02654-5.69935l9.59265-12.52762-1.801-5.56672,13.24379-3.428Z" transform="translate(-263.26984 -191.64102)" fill="#2f2e41"/><path d="M694.1059,596.02256l-5.07407,21.90683,38.01086,48.29128,14.55122-7.45723c-11.34025-25.26127-12.34025-28.26127-24.47077-39.157l.1243-.18766c8.71876-13.16277,18.138-25.78342,19.40933-41.5206.03474-.43-1.9135-16.17461-1.86823-16.60344,1.08631-10.292-49.70941-13.55711-49.70941-13.55711s-8.63343,15.21759-21.47471,26.88754l-25.97519,25.7521.70077,70.93966,12.22271,2.969c8.98722-17.12185,13.35745-37.1991,14.61273-59.27039l22.57911-15.14614Z" transform="translate(-263.26984 -191.64102)" fill="#2f2e41"/><path d="M731.74373,601.62583a6.74035,6.74035,0,0,1,1.46236-10.23164l-.861-4.30784-10.03792-50.22056,11.64141,4.40606,7.61233,45.31167,1.23712,7.36382a6.77695,6.77695,0,0,1-11.05426,7.67849Z" transform="translate(-263.26984 -191.64102)" fill="#9e616a"/><path d="M718.77773,487.43921l7.62744-5.16743s6.50173-.12713,7.051,11.61435,1.73967,34.62984,1.73967,34.62984l8.57292,52.62182-15.7302,2.618-9.1606-56.78359L712.5115,509.923Z" transform="translate(-263.26984 -191.64102)" fill="#ffffff"/><polygon points="427.567 326.152 425.399 331.787 425.833 337.423 468.252 352.115 466.147 327.452 461.379 321.817 427.567 326.152" fill="#ffb6b6"/><path d="M677.3913,559.18352l1.38124-13.812a2.75324,2.75324,0,0,1,2.48969-2.06822c.57549-6.57955,2.99676-34.96424,3.14143-36.20217l.00564-.05235,1.101-23.52031a3.47825,3.47825,0,0,1,3.24756-3.30822l5.81539-.38011a.30775.30775,0,0,0,.29738-.30754,4.89041,4.89041,0,0,1,4.89039-4.89043h17.21748a4.57867,4.57867,0,0,1,4.54113,4.00813.304.304,0,0,0,.30939.27356l.00206,0a8.17992,8.17992,0,0,1,8.22884,6.7847c2.35383,13.6953,7.07111,44.77845,4.73881,62.0589-.81191,6.01561.93833,1.25108,1.24535,6.28433a3.70486,3.70486,0,0,1-.92239,2.68615,2.671,2.671,0,0,1,1.6078,3.3951l.30261-.07491a2.76237,2.76237,0,0,1-3.35382,2.00335l-50.42465-4.55925C681.77429,557.12926,677.01839,560.66285,677.3913,559.18352Z" transform="translate(-263.26984 -191.64102)" fill="#ffffff"/><path d="M934.25961,706.859a1.18646,1.18646,0,0,1-1.19,1.19l-63.03.03-15.72.01-10.37.01h-11.47l-6.26.01-17.38.01-273.46.13995-2.08.01-122.31994.04h-2.02l-104.12.04h-2.02l-32.5.01a1.19,1.19,0,0,1,0-2.38l32.84-.01h2.02l104.09-.04h2.02l121.37-.04h2.07l103.42-.04h1.36l167.43-.1,17.35-.01,7.94-.01,12.55-.01h10.72l16.89-.01,60.68-.04A1.18642,1.18642,0,0,1,934.25961,706.859Z" transform="translate(-263.26984 -191.64102)" fill="#cacaca"/></svg>